<?xml version="1.0"?>
<svg version="1.1" xmlns="http://www.w3.org/2000/svg" width="300px" height="40px" style=""><path fill="#e31b93" d="M51.19140625,33.76953125q0-4.23828125,0.380859375-8.486328125t1.591796875-8.369140625q0.3515625-1.23046875,0.91796875-2.431640625t1.38671875-2.138671875t1.953125-1.5234375t2.6953125-0.5859375l0.41015625,0.0390625q1.6796875,0.234375,2.48046875,1.357421875t0.80078125,2.802734375q0,0.44921875-0.107421875,1.123046875t-0.341796875,1.298828125t-0.634765625,1.064453125t-1.005859375,0.439453125q-0.2734375-0.0390625-0.498046875-0.09765625t-0.419921875-0.25390625q0.3125-0.68359375,0.556640625-1.42578125t0.244140625-1.69921875q0-0.3515625-0.05859375-0.8984375t-0.224609375-1.083984375t-0.439453125-0.9375t-0.76171875-0.400390625q-1.23046875,0-2.0703125,1.376953125t-1.40625,3.515625t-0.83984375,4.7265625t-0.419921875,5t-0.166015625,4.35546875t-0.01953125,2.744140625q0,0.9375-0.01953125,2.0703125l0,0.25390625q0.01953125,0.99609375,0.13671875,1.89453125q0.15625,1.015625,0.60546875,1.7578125t1.40625,0.859375q0.29296875,0.0390625,0.56640625,0.0390625q1.1328125,0,2.05078125-0.64453125q1.1328125-0.80078125,2.01171875-2.080078125t1.5625-2.8125t1.259765625-2.900390625t1.123046875-2.265625t1.1328125-0.8984375q0.1953125,0,0.5859375,0.078125t0.390625,0.37109375q0,0.078125-0.0390625,0.21484375t-0.09765625,0.21484375q-0.52734375,2.0703125-1.337890625,4.296875t-2.0703125,4.052734375t-3.0859375,2.978515625t-4.384765625,1.15234375q-1.8359375,0-2.978515625-0.693359375t-1.7578125-1.85546875t-0.83984375-2.626953125t-0.224609375-2.96875z M72.0052734375,34.84375l0-1.8359375q0-0.99609375,0.048828125-2.822265625t0.126953125-4.00390625t0.21484375-4.541015625t0.3125-4.462890625t0.419921875-3.759765625t0.556640625-2.4609375q0.1953125-0.44921875,0.64453125-0.56640625t0.87890625-0.1171875q0.68359375,0,1.201171875,0.302734375t0.517578125,1.103515625l-0.3515625,0.390625q-0.68359375,4.51171875-0.87890625,9.0625t-0.2734375,9.1015625q0.48828125-0.76171875,1.103515625-1.494140625t1.3671875-1.298828125t1.62109375-0.908203125t1.904296875-0.341796875q1.328125,0,2.197265625,0.80078125t1.435546875,2.080078125t0.83984375,2.861328125t0.419921875,3.1640625t0.205078125,2.998046875t0.17578125,2.353515625q-0.37109375,0.5078125-1.09375,0.5078125l-0.05859375,0q-0.3125,0-0.68359375-0.078125t-0.48828125-0.390625l0.0390625,0.0390625q-0.2734375-0.60546875-0.37109375-1.748046875t-0.15625-2.51953125t-0.205078125-2.822265625t-0.439453125-2.6171875t-0.859375-1.93359375t-1.5234375-0.80078125l-0.1171875,0q-1.15234375,0-1.93359375,0.703125q-0.8203125,0.7421875-1.328125,1.953125t-0.78125,2.6953125t-0.419921875,2.861328125t-0.224609375,2.5t-0.1953125,1.650390625q-0.1171875,0.44921875-0.693359375,0.595703125t-0.986328125,0.146484375q-0.95703125,0-1.5625-0.546875q-0.44921875-1.07421875-0.52734375-2.67578125t-0.078125-3.125z M90.690234375,33.515625q0-1.3671875,0.302734375-3.22265625t1.025390625-3.515625t1.904296875-2.822265625t2.978515625-1.162109375q1.6796875,0,2.51953125,0.966796875t0.83984375,2.607421875q0,1.07421875-0.400390625,2.353515625t-1.142578125,2.421875t-1.7578125,1.904296875t-2.265625,0.76171875l-0.5078125-0.0390625q0,0.52734375,0.15625,1.416015625t0.458984375,1.767578125t0.78125,1.54296875t1.162109375,0.6640625q0.99609375,0,1.9140625-0.80078125t1.73828125-1.77734375t1.5234375-1.77734375t1.2890625-0.80078125q0.3125,0,0.64453125,0.09765625t0.37109375,0.546875q0,0.2734375-0.146484375,0.44921875t-0.263671875,0.390625q-0.60546875,1.03515625-1.318359375,1.97265625t-1.611328125,1.69921875t-1.962890625,1.201171875t-2.353515625,0.439453125q-1.6796875,0-2.79296875-0.595703125t-1.796875-1.6015625t-0.986328125-2.32421875t-0.302734375-2.763671875z M94.186328125,32.03125l0.546875,0.48828125q0.390625,0.3515625,0.78125,0.15625t0.703125-0.712890625t0.576171875-1.279296875t0.46875-1.5625t0.302734375-1.5625t0.09765625-1.26953125l0-0.6640625t-0.05859375-0.703125t-0.205078125-0.556640625t-0.458984375-0.283203125q-0.09765625-0.01953125-0.17578125-0.01953125q-0.6640625,0-1.1328125,0.83984375q-0.5078125,0.9375-0.8203125,2.275390625t-0.44921875,2.744140625t-0.17578125,2.109375z M107.0119140625,40.64453125l0.41015625-0.48828125q-0.078125-3.28125-0.17578125-6.54296875t-0.09765625-6.484375q0-4.00390625,0.478515625-7.744140625t0.947265625-7.666015625q0.0390625-0.234375,0.224609375-0.380859375t0.458984375-0.244140625t0.556640625-0.13671875t0.517578125-0.0390625q0.3125,0,0.78125,0.1171875t0.9375,0.68359375q0,0.1953125,0.029296875,0.341796875t0.029296875,0.341796875q0,1.484375-0.400390625,3.18359375t-0.537109375,3.26171875q-0.15625,1.9140625-0.21484375,3.7890625t-0.05859375,3.80859375l0.0390625,1.71875q0.390625-0.48828125,1.11328125-1.25t1.5625-1.474609375t1.6796875-1.220703125t1.5234375-0.5078125q1.03515625,0,1.435546875,0.5859375t0.400390625,1.54296875q0,0.87890625-0.380859375,1.8359375t-0.99609375,1.865234375t-1.396484375,1.630859375t-1.54296875,1.07421875q1.03515625,1.2890625,2.119140625,2.4609375t2.373046875,2.20703125l0,0.44921875q-0.0390625,0.1953125-0.244140625,0.29296875t-0.44921875,0.15625t-0.478515625,0.087890625t-0.390625,0.029296875q-0.95703125,0-1.845703125-0.56640625t-1.66015625-1.38671875t-1.455078125-1.73828125t-1.25-1.6015625q0.1171875,2.24609375,0.263671875,4.482421875t0.146484375,4.482421875q0,0.2734375-0.244140625,0.458984375t-0.56640625,0.283203125t-0.654296875,0.13671875t-0.546875,0.0390625q-1.15234375,0-1.630859375-0.419921875t-0.810546875-1.455078125z M111.0158203125,31.4453125q0.48828125,0,1.162109375-0.419921875t1.396484375-1.044921875t1.34765625-1.318359375t1.005859375-1.318359375t0.380859375-1.005859375t-0.52734375-0.341796875q-0.1953125,0-0.80078125,0.56640625t-1.34765625,1.38671875t-1.484375,1.77734375t-1.1328125,1.71875z M122.43515625,33.0859375q0-1.11328125,0.283203125-2.294921875t0.8984375-2.12890625t1.552734375-1.54296875t2.265625-0.595703125q0.99609375,0,2.099609375,0.341796875t2.021484375,0.9765625t1.494140625,1.552734375t0.576171875,2.05078125q0,1.3671875-0.498046875,2.59765625t-1.396484375,2.197265625t-2.099609375,1.5234375t-2.607421875,0.556640625q-1.15234375,0-2.01171875-0.419921875t-1.435546875-1.123046875t-0.859375-1.66015625t-0.283203125-2.03125z M125.30625,33.046875q0,0.3515625,0.107421875,1.03515625t0.322265625,1.337890625t0.556640625,1.1328125t0.830078125,0.439453125q1.03515625-0.1171875,1.708984375-0.673828125t1.09375-1.357421875t0.5859375-1.73828125t0.166015625-1.77734375q0-1.07421875-0.419921875-1.796875t-1.376953125-1.171875q0,0.0390625,0.0390625,0.0390625t0.0390625-0.0390625l-0.48828125-0.1171875q-0.1953125-0.078125-0.478515625-0.17578125t-0.556640625-0.4296875q-0.76171875,0.2734375-1.181640625,0.703125t-0.634765625,1.044921875t-0.263671875,1.474609375t-0.048828125,2.0703125z M137.2333984375,39.6484375q0-0.56640625,0.048828125-1.19140625t0.087890625-1.171875l0.1171875-2.9296875q0.1953125-3.515625,0.478515625-6.9140625t0.478515625-6.875q0.1171875-1.9140625,0.17578125-3.759765625t0.17578125-3.759765625q-0.078125-0.15625-0.078125-0.21484375q0-0.2734375,0.205078125-0.4296875t0.478515625-0.263671875t0.576171875-0.146484375t0.458984375-0.0390625l0.44921875,0q0.60546875,0.078125,0.87890625,0.380859375t0.3515625,0.72265625t0.0390625,0.8984375t-0.0390625,0.888671875q0,2.83203125-0.13671875,5.771484375t-0.3125,5.8984375t-0.322265625,5.91796875t-0.146484375,5.849609375l0,1.3671875q0,0.91796875-0.517578125,1.2109375t-1.435546875,0.29296875q-0.80078125,0-1.40625-0.3515625t-0.60546875-1.15234375z M146.191796875,33.515625q0-1.3671875,0.302734375-3.22265625t1.025390625-3.515625t1.904296875-2.822265625t2.978515625-1.162109375q1.6796875,0,2.51953125,0.966796875t0.83984375,2.607421875q0,1.07421875-0.400390625,2.353515625t-1.142578125,2.421875t-1.7578125,1.904296875t-2.265625,0.76171875l-0.5078125-0.0390625q0,0.52734375,0.15625,1.416015625t0.458984375,1.767578125t0.78125,1.54296875t1.162109375,0.6640625q0.99609375,0,1.9140625-0.80078125t1.73828125-1.77734375t1.5234375-1.77734375t1.2890625-0.80078125q0.3125,0,0.64453125,0.09765625t0.37109375,0.546875q0,0.2734375-0.146484375,0.44921875t-0.263671875,0.390625q-0.60546875,1.03515625-1.318359375,1.97265625t-1.611328125,1.69921875t-1.962890625,1.201171875t-2.353515625,0.439453125q-1.6796875,0-2.79296875-0.595703125t-1.796875-1.6015625t-0.986328125-2.32421875t-0.302734375-2.763671875z M149.687890625,32.03125l0.546875,0.48828125q0.390625,0.3515625,0.78125,0.15625t0.703125-0.712890625t0.576171875-1.279296875t0.46875-1.5625t0.302734375-1.5625t0.09765625-1.26953125l0-0.6640625t-0.05859375-0.703125t-0.205078125-0.556640625t-0.458984375-0.283203125q-0.09765625-0.01953125-0.17578125-0.01953125q-0.6640625,0-1.1328125,0.83984375q-0.5078125,0.9375-0.8203125,2.275390625t-0.44921875,2.744140625t-0.17578125,2.109375z M170.12421875,14.43359375q0-0.234375,0.224609375-0.3515625t0.48828125-0.17578125t0.478515625-0.05859375l0.21484375,0q0.68359375,0,0.986328125,0.3125t0.732421875,0.80078125q2.9296875,4.23828125,5.37109375,8.720703125t4.70703125,9.072265625q0.1953125-5.3515625,0.400390625-10.771484375t0.517578125-10.751953125q0-0.234375,0.224609375-0.390625t0.5078125-0.234375t0.576171875-0.09765625t0.44921875-0.01953125q0.234375,0,0.517578125,0.01953125t0.56640625,0.1171875t0.46875,0.234375t0.185546875,0.37109375q0.078125,0.83984375,0.087890625,1.689453125t0.009765625,1.689453125q0,6.2890625-0.2734375,12.32421875t-0.2734375,12.1875l0,1.40625q0,0.078125-0.078125,0.234375q0.0390625,0.15625,0.1171875,0.341796875t0.078125,0.263671875q0,0.3125-0.322265625,0.46875t-0.703125,0.244140625t-0.673828125,0.087890625t-0.21484375,0q-0.99609375,0-1.6796875-0.546875t-0.68359375-1.30859375q-1.4453125-3.2421875-2.880859375-6.435546875t-2.998046875-6.357421875q-0.99609375-1.9921875-2.001953125-3.994140625t-2.158203125-3.876953125q0.0390625,0.0390625,0.0390625,0.1171875q0.1953125,1.953125,0.419921875,3.896484375t0.341796875,3.896484375q0.078125,1.6796875,0.17578125,3.3984375t0.3125,3.3984375q0,0.64453125-0.400390625,0.8203125t-0.927734375,0.17578125q-0.44921875,0-0.849609375-0.1171875t-0.478515625-0.5859375q0-1.796875-0.13671875-3.818359375t-0.25390625-4.072265625q-0.1953125-2.71484375-0.517578125-5.517578125t-0.322265625-5.478515625q0-0.1171875,0.01953125-0.244140625t0.01953125-0.283203125q-0.1171875-0.1953125-0.263671875-0.41015625t-0.146484375-0.390625z M191.8169921875,32.03125q0-1.07421875,0.205078125-2.294921875t0.703125-2.236328125t1.376953125-1.6796875t2.24609375-0.6640625q0.91796875,0,1.77734375,0.302734375t1.62109375,0.830078125q0.234375-0.390625,0.7421875-0.478515625t0.8984375-0.087890625q0.15625,0,0.439453125,0.01953125t0.556640625,0.1171875t0.478515625,0.234375t0.244140625,0.390625q0.15625,1.3671875,0.21484375,2.724609375t0.17578125,2.705078125q0.1953125,2.51953125,0.60546875,4.98046875t0.41015625,4.98046875q0,1.19140625-0.107421875,2.578125t-0.56640625,2.568359375t-1.337890625,1.962890625t-2.44140625,0.78125q-1.40625,0-2.158203125-0.498046875t-1.357421875-1.669921875q0.0390625-0.390625,0.498046875-0.517578125t0.791015625-0.126953125q0.3125,0,0.634765625,0.05859375t0.517578125,0.1953125l0.48828125,0.3125q0.72265625-1.484375,0.87890625-3.2421875t0.15625-3.3984375q0-1.3671875-0.13671875-2.705078125t-0.2734375-2.685546875q-1.3671875,2.48046875-4.16015625,2.48046875q-1.2890625,0-2.099609375-0.546875t-1.25-1.38671875t-0.60546875-1.89453125t-0.166015625-2.109375z M194.2193359375,32.20703125q0,0.48828125,0.0390625,1.259765625t0.205078125,1.513671875t0.478515625,1.279296875t0.87890625,0.537109375q1.07421875,0,1.69921875-0.83984375t0.986328125-2.001953125t0.576171875-2.40234375t0.546875-2.041015625q-0.0390625-0.2734375-0.0390625-0.537109375l0-0.537109375q-0.44921875-0.83984375-1.30859375-1.455078125t-1.77734375-0.830078125q-0.1171875-0.01953125-0.21484375-0.01953125q-0.546875,0-0.8984375,0.64453125q-0.44921875,0.78125-0.703125,1.865234375t-0.361328125,2.138671875t-0.107421875,1.42578125z M207.708984375,30.99609375q0-0.390625,0.087890625-1.03515625t0.205078125-1.279296875t0.2734375-1.181640625t0.37109375-0.703125q0.15625-0.15625,0.537109375-0.3125t0.80078125-0.224609375t0.78125,0.05859375t0.439453125,0.517578125q-0.2734375,0.3515625-0.498046875,1.201171875t-0.341796875,1.884765625q-0.09765625,0.87890625-0.09765625,1.81640625l0,0.33203125q0.01953125,1.09375,0.1953125,2.01171875t0.537109375,1.513671875t1.005859375,0.595703125q1.3671875,0,2.5-1.259765625t2.01171875-3.076171875t1.54296875-3.857421875t1.1328125-3.564453125q0.1171875-0.44921875,0.556640625-0.60546875t0.947265625-0.107421875t0.908203125,0.244140625t0.478515625,0.46875q-0.390625,3.28125-0.615234375,6.5625t-0.224609375,6.6015625q0,0.64453125,0.05859375,1.181640625t-0.05859375,0.91796875t-0.517578125,0.60546875t-1.279296875,0.224609375q-0.1953125,0-0.498046875-0.0390625t-0.625-0.126953125t-0.546875-0.263671875t-0.224609375-0.41015625q0-1.4453125,0.107421875-2.96875t0.302734375-2.94921875q-0.52734375,0.76171875-1.162109375,1.513671875t-1.396484375,1.357421875t-1.640625,0.966796875t-1.89453125,0.361328125q-1.4453125,0-2.275390625-0.68359375t-1.25-1.708984375t-0.52734375-2.236328125t-0.107421875-2.34375z M226.0814453125,27.67578125q0-0.80078125,0.46875-1.376953125t1.142578125-0.9375t1.474609375-0.537109375t1.484375-0.17578125q0.52734375,0,1.40625,0.15625t1.71875,0.46875t1.455078125,0.8203125t0.615234375,1.19140625q0,0.3125-0.234375,0.556640625t-0.48828125,0.244140625q-0.52734375,0-0.95703125-0.341796875t-0.888671875-0.72265625t-1.005859375-0.72265625t-1.23046875-0.341796875t-1.240234375,0.439453125t-0.556640625,1.162109375q0,1.19140625,0.83984375,2.333984375t1.845703125,2.40234375t1.845703125,2.646484375t0.83984375,3.06640625q0,0.72265625-0.302734375,1.220703125t-0.80078125,0.810546875t-1.123046875,0.478515625t-1.2109375,0.166015625q-0.64453125,0-1.50390625-0.302734375t-1.62109375-0.80078125t-1.279296875-1.162109375t-0.517578125-1.38671875q0-0.3515625,0.498046875-0.44921875t0.732421875-0.09765625q0.1171875,0,0.361328125,0.078125t0.478515625,0.17578125t0.419921875,0.21484375t0.146484375,0.25390625q0.1953125,0.234375,0.595703125,0.693359375t0.80078125,0.7421875t0.703125,0.205078125t0.302734375-0.87890625q0-1.5234375-0.8203125-2.802734375t-1.787109375-2.5t-1.787109375-2.421875t-0.8203125-2.568359375z M239.84453125,32.71484375q0-1.328125,0.361328125-2.55859375t1.083984375-2.197265625t1.806640625-1.54296875t2.509765625-0.576171875q0.87890625,0,1.943359375,0.263671875t2.001953125,0.78125t1.5625,1.318359375t0.625,1.8359375q0,0.48828125-0.166015625,0.7421875t-0.673828125,0.25390625l-0.21484375-0.0390625q0.56640625,1.5234375,0.9765625,3.125t0.80078125,3.203125q0.15625,0.3125,0.234375,0.556640625t0.078125,0.478515625q0,0.3125-0.17578125,0.517578125t-0.458984375,0.302734375t-0.5859375,0.13671875t-0.537109375,0.0390625q-0.83984375,0-1.259765625-0.29296875t-0.60546875-0.80078125t-0.224609375-1.142578125t-0.15625-1.279296875q-0.234375,0.76171875-0.615234375,1.484375t-0.8984375,1.298828125t-1.220703125,0.91796875t-1.58203125,0.341796875q-1.2890625,0-2.16796875-0.7421875t-1.416015625-1.826171875t-0.78125-2.314453125t-0.244140625-2.28515625z M242.61796875,32.44140625q0,0.72265625,0.09765625,1.5234375t0.322265625,1.58203125t0.576171875,1.474609375t0.87890625,1.220703125q0.95703125-1.03515625,1.416015625-2.51953125t0.8203125-2.861328125t0.8203125-2.36328125t1.416015625-0.986328125q0.60546875,0,1.015625,0.21484375q-0.1953125-0.48828125-0.64453125-0.947265625t-1.005859375-0.83984375t-1.15234375-0.625t-1.123046875-0.244140625q-0.15625,0-0.361328125,0.048828125t-0.322265625,0.009765625q-0.80078125,0.234375-1.318359375,0.810546875t-0.83984375,1.357421875t-0.458984375,1.6015625t-0.13671875,1.54296875z M256.7716796875,39.6484375q0-0.56640625,0.048828125-1.19140625t0.087890625-1.171875l0.1171875-2.9296875q0.1953125-3.515625,0.478515625-6.9140625t0.478515625-6.875q0.1171875-1.9140625,0.17578125-3.759765625t0.17578125-3.759765625q-0.078125-0.15625-0.078125-0.21484375q0-0.2734375,0.205078125-0.4296875t0.478515625-0.263671875t0.576171875-0.146484375t0.458984375-0.0390625l0.44921875,0q0.60546875,0.078125,0.87890625,0.380859375t0.3515625,0.72265625t0.0390625,0.8984375t-0.0390625,0.888671875q0,2.83203125-0.13671875,5.771484375t-0.3125,5.8984375t-0.322265625,5.91796875t-0.146484375,5.849609375l0,1.3671875q0,0.91796875-0.517578125,1.2109375t-1.435546875,0.29296875q-0.80078125,0-1.40625-0.3515625t-0.60546875-1.15234375z M265.730078125,33.515625q0-1.3671875,0.302734375-3.22265625t1.025390625-3.515625t1.904296875-2.822265625t2.978515625-1.162109375q1.6796875,0,2.51953125,0.966796875t0.83984375,2.607421875q0,1.07421875-0.400390625,2.353515625t-1.142578125,2.421875t-1.7578125,1.904296875t-2.265625,0.76171875l-0.5078125-0.0390625q0,0.52734375,0.15625,1.416015625t0.458984375,1.767578125t0.78125,1.54296875t1.162109375,0.6640625q0.99609375,0,1.9140625-0.80078125t1.73828125-1.77734375t1.5234375-1.77734375t1.2890625-0.80078125q0.3125,0,0.64453125,0.09765625t0.37109375,0.546875q0,0.2734375-0.146484375,0.44921875t-0.263671875,0.390625q-0.60546875,1.03515625-1.318359375,1.97265625t-1.611328125,1.69921875t-1.962890625,1.201171875t-2.353515625,0.439453125q-1.6796875,0-2.79296875-0.595703125t-1.796875-1.6015625t-0.986328125-2.32421875t-0.302734375-2.763671875z M269.226171875,32.03125l0.546875,0.48828125q0.390625,0.3515625,0.78125,0.15625t0.703125-0.712890625t0.576171875-1.279296875t0.46875-1.5625t0.302734375-1.5625t0.09765625-1.26953125l0-0.6640625t-0.05859375-0.703125t-0.205078125-0.556640625t-0.458984375-0.283203125q-0.09765625-0.01953125-0.17578125-0.01953125q-0.6640625,0-1.1328125,0.83984375q-0.5078125,0.9375-0.8203125,2.275390625t-0.44921875,2.744140625t-0.17578125,2.109375z M282.1005859375,27.822265625q-0.048828125-0.654296875,0.078125-1.201171875t0.5078125-0.888671875t1.220703125-0.341796875q0.1953125,0,0.478515625,0.048828125t0.556640625,0.126953125t0.458984375,0.234375t0.185546875,0.4296875l0,2.20703125q0.76171875-0.87890625,1.66015625-1.259765625t2.05078125-0.380859375q0.87890625,0,1.73828125,0.400390625t1.62109375,1.064453125t1.318359375,1.46484375t0.810546875,1.6015625q0.15625-0.72265625,0.3515625-1.767578125t0.576171875-2.001953125t1.005859375-1.640625t1.66015625-0.68359375q1.11328125,0,1.875,0.80078125t1.240234375,2.080078125t0.72265625,2.861328125t0.361328125,3.125t0.1171875,2.880859375l0,2.099609375q0,0.234375-0.17578125,0.380859375t-0.439453125,0.224609375t-0.546875,0.09765625t-0.439453125,0.01953125q-0.60546875,0-1.103515625-0.185546875t-0.498046875-0.947265625l0-1.7578125t-0.0390625-2.275390625t-0.13671875-2.44140625t-0.25390625-2.216796875t-0.400390625-1.6015625t-0.595703125-0.625q-0.48828125,0-0.703125,0.546875t-0.361328125,1.38671875t-0.224609375,1.77734375t-0.21484375,1.77734375t-0.439453125,1.376953125t-0.830078125,0.537109375q-0.56640625,0-0.99609375-0.537109375t-0.849609375-1.337890625t-0.83984375-1.71875t-0.927734375-1.71875q-0.5078125-0.8203125-1.09375-1.328125q-0.52734375-0.48828125-1.19140625-0.46875l-0.09765625,0q-0.87890625,0.0390625-1.376953125,0.634765625t-0.76171875,1.455078125t-0.322265625,1.845703125t-0.05859375,1.728515625q0,0.703125,0.1171875,1.640625q0.078125,0.625,0.078125,1.19140625q0,0.29296875-0.01953125,0.56640625q-0.05859375,0.8203125-0.439453125,1.376953125t-1.416015625,0.556640625q-0.390625,0-0.9765625-0.078125t-0.78125-0.52734375q-0.44921875-0.80078125-0.68359375-2.021484375t-0.3515625-2.51953125t-0.13671875-2.578125t-0.01953125-2.197265625q0-0.64453125-0.048828125-1.298828125z"/><path fill="#4fb53e" d=""/></svg>
